# xmcd
#
# Track frame offsets: 
#        150
#        14902
#        31612
#        48822
#        68777
#        84752
#        99440
#        113470
#        131697
#        147637
#        163895
#        180365
#
# Disc length: 2650 seconds
#
# Revision: 1
# Processed by: cddbd v1.5.2PL0 Copyright (c) Steve Scherf et al.
# Submitted via: ExactAudioCopy v0.99pb5
#
DISCID=940a580c
DTITLE=Billie Piper - Walk Of Life (Japan) (Promo)
DYEAR=2000
DGENRE=Pop
TTITLE0=Day and Night (Stargate Mix)
TTITLE1=Something Deep Inside (Album Version)
TTITLE2=Walk Of Life (Album Version)
TTITLE3=Makin' My Way
TTITLE4=Safe With Me
TTITLE5=Ring My Bell
TTITLE6=The Tide Is High
TTITLE7=Run That By Me
TTITLE8=Promises
TTITLE9=Because Of You
TTITLE10=First Love
TTITLE11=Misfocusing
EXTD=YEAR: 2000
EXTT0=
EXTT1=
EXTT2=
EXTT3=
EXTT4=
EXTT5=
EXTT6=
EXTT7=
EXTT8=
EXTT9=
EXTT10=
EXTT11=
PLAYORDER=
